<mxfile host="app.diagrams.net" modified="2022-09-13T13:50:32.616Z" agent="5.0 (X11)" etag="PqTTaJ5JAjB3W51BunPJ" version="20.3.0" type="github">
  <diagram id="ELBJaecDyFUATaK4MYXZ" name="Page-1">
    <mxGraphModel dx="780" dy="725" grid="1" gridSize="10" guides="1" tooltips="1" connect="1" arrows="1" fold="1" page="1" pageScale="1" pageWidth="850" pageHeight="1100" math="0" shadow="0">
      <root>
        <mxCell id="0" />
        <mxCell id="1" parent="0" />
        <mxCell id="dYzwd8fi6cYSQRCEDAko-31" value="" style="whiteSpace=wrap;html=1;fontSize=14;fillColor=#E6E6E6;strokeColor=none;" parent="1" vertex="1">
          <mxGeometry x="740" y="121" width="20" height="359" as="geometry" />
        </mxCell>
        <mxCell id="dYzwd8fi6cYSQRCEDAko-30" value="" style="whiteSpace=wrap;html=1;fontSize=14;fillColor=#E6E6E6;strokeColor=none;" parent="1" vertex="1">
          <mxGeometry x="561" y="119.28" width="20" height="360.72" as="geometry" />
        </mxCell>
        <mxCell id="dYzwd8fi6cYSQRCEDAko-28" value="" style="whiteSpace=wrap;html=1;fontSize=14;fillColor=#E6E6E6;strokeColor=none;" parent="1" vertex="1">
          <mxGeometry x="371" y="120" width="20" height="360" as="geometry" />
        </mxCell>
        <mxCell id="dYzwd8fi6cYSQRCEDAko-14" value="" style="sketch=0;aspect=fixed;pointerEvents=1;shadow=0;dashed=0;html=1;strokeColor=none;labelPosition=center;verticalLabelPosition=bottom;verticalAlign=top;align=center;fillColor=#505050;shape=mxgraph.azure.user" parent="1" vertex="1">
          <mxGeometry x="141" y="68" width="48.2" height="51.28" as="geometry" />
        </mxCell>
        <mxCell id="dYzwd8fi6cYSQRCEDAko-1" value="" style="sketch=0;pointerEvents=1;shadow=0;dashed=0;html=1;strokeColor=none;fillColor=#505050;labelPosition=center;verticalLabelPosition=bottom;verticalAlign=top;outlineConnect=0;align=center;shape=mxgraph.office.servers.active_directory_federation_services_server_blue;" parent="1" vertex="1">
          <mxGeometry x="552.5" y="70" width="47.5" height="60" as="geometry" />
        </mxCell>
        <mxCell id="dYzwd8fi6cYSQRCEDAko-10" value="" style="sketch=0;aspect=fixed;pointerEvents=1;shadow=0;dashed=0;html=1;strokeColor=none;labelPosition=center;verticalLabelPosition=bottom;verticalAlign=top;align=center;fillColor=#505050;shape=mxgraph.mscae.enterprise.application_server" parent="1" vertex="1">
          <mxGeometry x="359.78999999999996" y="70.68" width="50.42" height="58.63" as="geometry" />
        </mxCell>
        <mxCell id="dYzwd8fi6cYSQRCEDAko-11" value="" style="sketch=0;aspect=fixed;pointerEvents=1;shadow=0;dashed=0;html=1;strokeColor=none;labelPosition=center;verticalLabelPosition=bottom;verticalAlign=top;align=center;fillColor=#505050;shape=mxgraph.mscae.enterprise.client_application" parent="1" vertex="1">
          <mxGeometry x="181" y="84" width="78.13" height="50" as="geometry" />
        </mxCell>
        <mxCell id="dYzwd8fi6cYSQRCEDAko-12" value="" style="sketch=0;aspect=fixed;pointerEvents=1;shadow=0;dashed=0;html=1;strokeColor=none;labelPosition=center;verticalLabelPosition=bottom;verticalAlign=top;align=center;fillColor=#505050;shape=mxgraph.mscae.enterprise.application_server2" parent="1" vertex="1">
          <mxGeometry x="730" y="70" width="51.6" height="60" as="geometry" />
        </mxCell>
        <mxCell id="dYzwd8fi6cYSQRCEDAko-18" value="&lt;div&gt;&lt;b&gt;&lt;font style=&quot;font-size: 14px&quot;&gt;Resource Owner&lt;/font&gt;&lt;/b&gt;&lt;/div&gt;&lt;div&gt;&lt;b&gt;&lt;font style=&quot;font-size: 14px&quot;&gt;(user)&lt;br&gt;&lt;/font&gt;&lt;/b&gt;&lt;/div&gt;" style="text;html=1;resizable=0;autosize=1;align=center;verticalAlign=middle;points=[];fillColor=none;strokeColor=none;rounded=0;" parent="1" vertex="1">
          <mxGeometry x="146" y="30" width="130" height="40" as="geometry" />
        </mxCell>
        <mxCell id="dYzwd8fi6cYSQRCEDAko-19" value="&lt;div&gt;&lt;b&gt;&lt;font style=&quot;font-size: 14px&quot;&gt;Client Application&lt;/font&gt;&lt;/b&gt;&lt;/div&gt;&lt;div&gt;&lt;b&gt;&lt;font style=&quot;font-size: 14px&quot;&gt;(web app)&lt;br&gt;&lt;/font&gt;&lt;/b&gt;&lt;/div&gt;" style="text;html=1;resizable=0;autosize=1;align=center;verticalAlign=middle;points=[];fillColor=none;strokeColor=none;rounded=0;" parent="1" vertex="1">
          <mxGeometry x="317" y="30" width="130" height="40" as="geometry" />
        </mxCell>
        <mxCell id="dYzwd8fi6cYSQRCEDAko-20" value="&lt;div&gt;&lt;b&gt;&lt;font style=&quot;font-size: 14px&quot;&gt;Authentication Server&lt;/font&gt;&lt;/b&gt;&lt;/div&gt;&lt;div&gt;&lt;b&gt;&lt;font style=&quot;font-size: 14px&quot;&gt;(Keycloak)&lt;br&gt;&lt;/font&gt;&lt;/b&gt;&lt;/div&gt;" style="text;html=1;resizable=0;autosize=1;align=center;verticalAlign=middle;points=[];fillColor=none;strokeColor=none;rounded=0;" parent="1" vertex="1">
          <mxGeometry x="483" y="25" width="170" height="50" as="geometry" />
        </mxCell>
        <mxCell id="dYzwd8fi6cYSQRCEDAko-21" value="&lt;div&gt;&lt;b&gt;&lt;font style=&quot;font-size: 14px&quot;&gt;Resource Server&lt;/font&gt;&lt;/b&gt;&lt;/div&gt;&lt;div&gt;&lt;b&gt;&lt;font style=&quot;font-size: 14px&quot;&gt;(microservice)&lt;br&gt;&lt;/font&gt;&lt;/b&gt;&lt;/div&gt;" style="text;html=1;resizable=0;autosize=1;align=center;verticalAlign=middle;points=[];fillColor=none;strokeColor=none;rounded=0;" parent="1" vertex="1">
          <mxGeometry x="681" y="30" width="130" height="40" as="geometry" />
        </mxCell>
        <mxCell id="dYzwd8fi6cYSQRCEDAko-22" value="" style="whiteSpace=wrap;html=1;fontSize=14;fillColor=#E6E6E6;strokeColor=none;" parent="1" vertex="1">
          <mxGeometry x="207" y="134" width="20" height="346" as="geometry" />
        </mxCell>
        <mxCell id="dYzwd8fi6cYSQRCEDAko-24" value="" style="endArrow=classic;html=1;rounded=0;" parent="1" edge="1">
          <mxGeometry width="50" height="50" relative="1" as="geometry">
            <mxPoint x="228" y="183" as="sourcePoint" />
            <mxPoint x="370" y="183" as="targetPoint" />
          </mxGeometry>
        </mxCell>
        <mxCell id="dYzwd8fi6cYSQRCEDAko-25" value="" style="endArrow=classic;html=1;rounded=0;" parent="1" edge="1">
          <mxGeometry width="50" height="50" relative="1" as="geometry">
            <mxPoint x="367" y="194" as="sourcePoint" />
            <mxPoint x="227" y="194" as="targetPoint" />
          </mxGeometry>
        </mxCell>
        <mxCell id="dYzwd8fi6cYSQRCEDAko-26" value="Unauthenticated request" style="text;html=1;resizable=0;autosize=1;align=center;verticalAlign=middle;points=[];fillColor=none;strokeColor=none;rounded=0;fontStyle=1" parent="1" vertex="1">
          <mxGeometry x="222" y="162" width="160" height="20" as="geometry" />
        </mxCell>
        <mxCell id="dYzwd8fi6cYSQRCEDAko-27" value="Login link or redirection" style="text;html=1;resizable=0;autosize=1;align=center;verticalAlign=middle;points=[];fillColor=none;strokeColor=none;rounded=0;" parent="1" vertex="1">
          <mxGeometry x="225" y="198" width="140" height="20" as="geometry" />
        </mxCell>
        <mxCell id="dYzwd8fi6cYSQRCEDAko-32" value="" style="endArrow=classic;html=1;rounded=0;" parent="1" edge="1">
          <mxGeometry width="50" height="50" relative="1" as="geometry">
            <mxPoint x="225" y="264" as="sourcePoint" />
            <mxPoint x="557" y="264" as="targetPoint" />
          </mxGeometry>
        </mxCell>
        <mxCell id="dYzwd8fi6cYSQRCEDAko-33" value="" style="endArrow=classic;html=1;rounded=0;" parent="1" edge="1">
          <mxGeometry width="50" height="50" relative="1" as="geometry">
            <mxPoint x="560" y="320" as="sourcePoint" />
            <mxPoint x="230" y="320" as="targetPoint" />
          </mxGeometry>
        </mxCell>
        <mxCell id="dYzwd8fi6cYSQRCEDAko-34" value="&lt;div align=&quot;left&quot;&gt;&lt;b&gt;Begin OIDC login&lt;/b&gt;&lt;br&gt;&lt;/div&gt;&lt;div align=&quot;left&quot;&gt;GET /realms/&amp;lt;realm&amp;gt;/protocol/openid-connect/auth (client_id, redirect_uri, scope)&lt;/div&gt;" style="text;html=1;resizable=0;autosize=1;align=left;verticalAlign=middle;points=[];fillColor=none;strokeColor=none;rounded=0;fontStyle=0" parent="1" vertex="1">
          <mxGeometry x="231" y="228" width="460" height="40" as="geometry" />
        </mxCell>
        <mxCell id="dYzwd8fi6cYSQRCEDAko-35" value="&lt;div align=&quot;left&quot;&gt;&lt;b&gt;Auth Server provides code&lt;/b&gt;&lt;br&gt;&lt;/div&gt;&lt;div align=&quot;left&quot;&gt;GET /oidc_callback&lt;/div&gt;" style="text;html=1;resizable=0;autosize=1;align=left;verticalAlign=middle;points=[];fillColor=none;strokeColor=none;rounded=0;" parent="1" vertex="1">
          <mxGeometry x="232" y="285" width="180" height="40" as="geometry" />
        </mxCell>
        <mxCell id="dYzwd8fi6cYSQRCEDAko-39" value="" style="endArrow=classic;html=1;rounded=0;" parent="1" edge="1">
          <mxGeometry width="50" height="50" relative="1" as="geometry">
            <mxPoint x="229" y="331" as="sourcePoint" />
            <mxPoint x="371" y="331" as="targetPoint" />
          </mxGeometry>
        </mxCell>
        <mxCell id="dYzwd8fi6cYSQRCEDAko-43" value="" style="endArrow=classic;html=1;rounded=0;" parent="1" edge="1">
          <mxGeometry width="50" height="50" relative="1" as="geometry">
            <mxPoint x="398" y="382" as="sourcePoint" />
            <mxPoint x="560" y="382" as="targetPoint" />
          </mxGeometry>
        </mxCell>
        <mxCell id="dYzwd8fi6cYSQRCEDAko-44" value="" style="endArrow=classic;html=1;rounded=0;" parent="1" edge="1">
          <mxGeometry width="50" height="50" relative="1" as="geometry">
            <mxPoint x="554" y="393" as="sourcePoint" />
            <mxPoint x="391" y="393" as="targetPoint" />
          </mxGeometry>
        </mxCell>
        <mxCell id="dYzwd8fi6cYSQRCEDAko-45" value="&lt;div&gt;&lt;b&gt;Opaquely exchange code for ID/Access Token&lt;/b&gt;&lt;br&gt;&lt;/div&gt;&lt;div&gt;POST /realms/&amp;lt;realm&amp;gt;/protocol/openid-connect/token (code)&lt;br&gt;&lt;/div&gt;" style="text;html=1;resizable=0;autosize=1;align=left;verticalAlign=middle;points=[];fillColor=none;strokeColor=none;rounded=0;" parent="1" vertex="1">
          <mxGeometry x="397.5" y="348" width="350" height="40" as="geometry" />
        </mxCell>
        <mxCell id="dYzwd8fi6cYSQRCEDAko-46" value="ID Token(JWT), Access Token" style="text;html=1;resizable=0;autosize=1;align=left;verticalAlign=middle;points=[];fillColor=none;strokeColor=none;rounded=0;" parent="1" vertex="1">
          <mxGeometry x="397.5" y="391" width="180" height="30" as="geometry" />
        </mxCell>
        <mxCell id="dYzwd8fi6cYSQRCEDAko-51" value="" style="endArrow=classic;html=1;rounded=0;" parent="1" edge="1">
          <mxGeometry width="50" height="50" relative="1" as="geometry">
            <mxPoint x="227" y="463" as="sourcePoint" />
            <mxPoint x="740" y="463" as="targetPoint" />
          </mxGeometry>
        </mxCell>
        <mxCell id="dYzwd8fi6cYSQRCEDAko-52" value="&lt;div align=&quot;left&quot;&gt;&lt;b&gt;Make calls to protected services&lt;/b&gt;&lt;br&gt;&lt;/div&gt;&lt;div align=&quot;left&quot;&gt;Header &quot;Authentication: Bearer &amp;lt;AccessToken&amp;gt;&quot;&lt;br&gt;&lt;/div&gt;" style="text;html=1;resizable=0;autosize=1;align=left;verticalAlign=middle;points=[];fillColor=none;strokeColor=none;rounded=0;fontStyle=0" parent="1" vertex="1">
          <mxGeometry x="233" y="428" width="280" height="40" as="geometry" />
        </mxCell>
        <mxCell id="LTC7T7H0LT_NFuuIO1uc-2" value="" style="shape=image;html=1;verticalAlign=top;verticalLabelPosition=bottom;labelBackgroundColor=#ffffff;imageAspect=0;aspect=fixed;image=https://cdn3.iconfinder.com/data/icons/arrows-set-12/512/reset-128.png;fontColor=#808080;" parent="1" vertex="1">
          <mxGeometry x="574" y="276" width="27" height="27" as="geometry" />
        </mxCell>
        <mxCell id="LTC7T7H0LT_NFuuIO1uc-3" value="&lt;div&gt;Keycloak&lt;/div&gt;&lt;div&gt;login process&lt;br&gt;&lt;/div&gt;" style="text;html=1;resizable=0;autosize=1;align=left;verticalAlign=middle;points=[];fillColor=none;strokeColor=none;rounded=0;" parent="1" vertex="1">
          <mxGeometry x="600" y="272" width="90" height="40" as="geometry" />
        </mxCell>
      </root>
    </mxGraphModel>
  </diagram>
</mxfile>
